<svg width="190" height="190" viewBox="0 0 190 190" fill="none" xmlns="http://www.w3.org/2000/svg">
<path d="M37.5865 55.8836C40.6775 52.7785 45.6862 52.7785 48.7772 55.8836L82.5425 89.8032C85.6373 92.9121 85.6373 97.9554 82.5425 101.064L48.7772 134.984C45.6862 138.089 40.6775 138.089 37.5865 134.984L3.82109 101.064C0.726305 97.9554 0.726304 92.9121 3.82109 89.8032L37.5865 55.8836Z" fill="white" fill-opacity="0.1" stroke="#FB6F92" stroke-width="3"/>
<path d="M141.223 55.8836C144.314 52.7785 149.323 52.7785 152.414 55.8836L186.179 89.8032C189.274 92.9121 189.274 97.9554 186.179 101.064L152.414 134.984C149.323 138.089 144.314 138.089 141.223 134.984L107.457 101.064C104.363 97.9554 104.363 92.9121 107.457 89.8032L141.223 55.8836Z" fill="white" fill-opacity="0.1" stroke="#FB6F92" stroke-width="3"/>
<path d="M89.4046 107.071C92.4957 103.966 97.5043 103.966 100.595 107.071L134.361 140.99C137.456 144.099 137.456 149.143 134.361 152.252L100.595 186.171C97.5043 189.276 92.4957 189.276 89.4046 186.171L55.6393 152.252C52.5445 149.143 52.5445 144.099 55.6393 140.99L89.4046 107.071Z" fill="white" fill-opacity="0.1" stroke="#FB6F92" stroke-width="3"/>
<path d="M89.4046 3.82885C92.4957 0.723717 97.5043 0.723717 100.595 3.82885L134.361 37.7484C137.456 40.8573 137.456 45.9007 134.361 49.0096L100.595 82.9291C97.5043 86.0343 92.4957 86.0343 89.4046 82.9291L55.6393 49.0096C52.5445 45.9007 52.5445 40.8573 55.6393 37.7484L89.4046 3.82885Z" fill="white" fill-opacity="0.1" stroke="#FB6F92" stroke-width="3"/>
<path opacity="0.5" d="M88.3416 54.8254C92.0189 51.1312 97.9811 51.1312 101.658 54.8254L135.424 88.7449C139.101 92.439 139.101 98.4284 135.424 102.123L101.658 136.042C97.9811 139.736 92.0189 139.736 88.3416 136.042L54.5762 102.123C50.8988 98.4284 50.8988 92.439 54.5762 88.7449L88.3416 54.8254Z" fill="url(#paint0_linear_230_427)"/>
<defs>
<linearGradient id="paint0_linear_230_427" x1="95" y1="52.0547" x2="95" y2="138.813" gradientUnits="userSpaceOnUse">
<stop stop-color="#FB6F92"/>
<stop offset="1" stop-color="#FFDEE6"/>
</linearGradient>
</defs>
</svg>
