<svg width="1840" height="145" viewBox="0 0 1840 145" fill="none" xmlns="http://www.w3.org/2000/svg">
<path d="M148.25 20.7143C148.25 24.9634 146.754 28.5296 143.764 31.4129C140.923 34.4479 137.409 35.9655 133.223 35.9655H43.5105C40.6696 36.1172 38.2773 36.8001 36.3335 38.0141C34.5392 39.0764 33.1936 40.3663 32.2964 41.8838C31.3993 43.2496 30.9508 44.6913 30.9508 46.2088C30.9508 47.7263 31.3993 49.2439 32.2964 50.7614C33.1936 52.1272 34.5392 53.4171 36.3335 54.6311C38.2773 55.6934 40.6696 56.3004 43.5105 56.4521H107.206C117.673 56.7556 126.27 59.2596 132.999 63.9639C139.876 68.5165 144.736 73.8278 147.577 79.898C150.567 85.8163 152.062 91.8865 152.062 98.1083C152.062 104.178 150.567 110.249 147.577 116.319C144.586 122.237 139.727 127.548 132.999 132.253C126.27 136.805 117.673 139.082 107.206 139.082H105.861C104.963 139.233 104.066 139.309 103.169 139.309H18.391C14.2045 139.309 10.616 137.868 7.62555 134.984C4.78466 131.949 3.36421 128.307 3.36421 124.058C3.36421 119.809 4.85942 116.243 7.84983 113.359C10.6907 110.324 14.2045 108.807 18.391 108.807H108.552C111.393 108.959 113.71 108.428 115.505 107.214C117.448 105.999 118.869 104.634 119.766 103.116C120.663 101.447 121.112 99.7776 121.112 98.1083C121.112 97.0461 120.663 95.6044 119.766 93.7834C118.869 91.8106 117.448 90.2172 115.505 89.0031C113.71 87.7891 111.393 87.1062 108.552 86.9545H44.8562C34.3897 86.651 25.7175 84.2229 18.8396 79.6703C12.1112 75.1177 7.25175 69.9581 4.26134 64.1915C1.42045 58.2732 0 52.2789 0 46.2088C0 40.2904 1.49521 34.4479 4.48562 28.6813C7.47603 22.763 12.3354 17.5275 19.0639 12.9749C25.7923 8.42229 34.3897 5.99424 44.8562 5.69074H46.2019C47.099 5.53898 47.9961 5.46311 48.8932 5.46311H133.223C137.409 5.46311 140.923 6.98064 143.764 10.0157C146.754 12.899 148.25 16.4652 148.25 20.7143Z" fill="#FF8FAB"/>
<path d="M227.645 104.482C227.645 100.233 229.065 96.6667 231.906 93.7834C234.897 90.7483 238.485 89.2308 242.672 89.2308H276.987L271.156 72.3862C268.763 66.1643 266.371 60.3218 263.979 54.8587C261.736 49.2439 259.119 44.1601 256.129 39.6075C253.437 35.0549 250.372 32.6269 246.933 32.3234C243.345 32.6269 240.13 35.0549 237.289 39.6075C234.448 44.1601 231.832 49.2439 229.439 54.8587C227.196 60.3218 224.879 66.1643 222.487 72.3862L201.18 131.57C199.685 134.757 197.741 137.412 195.349 139.537C193.106 141.51 189.667 142.496 185.032 142.496C180.696 142.496 177.107 140.979 174.266 137.943C171.575 134.908 170.379 131.266 170.678 127.017C170.827 125.044 171.276 123.223 172.023 121.554L196.694 56.9074C203.572 39.911 210.45 26.1774 217.328 15.7064C224.057 5.38723 233.925 0.151753 246.933 0C259.792 0.151753 269.586 5.38723 276.314 15.7064C283.192 25.8739 290.07 39.6075 296.948 56.9074L321.619 121.554C322.366 123.223 322.815 125.044 322.964 127.017C323.263 131.266 321.993 134.908 319.152 137.943C316.46 140.979 312.947 142.496 308.61 142.496C303.676 142.496 300.013 141.51 297.621 139.537C295.378 137.412 293.509 134.757 292.014 131.57L287.752 119.733H242.672C238.485 119.733 234.972 118.216 232.131 115.181C229.14 112.297 227.645 108.731 227.645 104.482Z" fill="#FF8FAB"/>
<path d="M360.868 1.82104C364.905 1.97279 368.344 3.49032 371.185 6.37363C374.026 9.10518 375.521 12.5196 375.67 16.617V128.155C374.773 137.261 369.839 142.193 360.868 142.951C356.681 142.951 353.018 141.586 349.878 138.854C346.888 135.971 345.392 132.405 345.392 128.155V16.617C345.542 12.3679 347.112 8.87755 350.102 6.146C353.093 3.26269 356.681 1.82104 360.868 1.82104ZM399.22 41.8838C409.238 35.0549 422.769 28.1502 439.815 21.1695L476.597 5.23548C478.242 4.47671 480.036 4.02145 481.98 3.8697C486.166 3.5662 489.755 4.8561 492.745 7.7394C495.735 10.471 497.231 14.0372 497.231 18.438C497.231 23.4458 496.184 27.1638 494.091 29.5918C492.147 31.8681 489.605 33.765 486.465 35.2826L455.066 47.3469C448.935 49.775 443.104 52.203 437.572 54.6311C432.189 56.9074 427.255 59.5631 422.769 62.5981C418.284 65.3297 415.891 68.4406 415.592 71.9309C415.891 75.2695 418.284 78.3804 422.769 81.2637C427.255 84.2988 432.189 87.0304 437.572 89.4584C443.104 91.7347 448.935 94.0869 455.066 96.5149L490.054 109.49C493.194 111.007 495.735 112.98 497.679 115.408C499.772 117.684 500.819 121.327 500.819 126.334C500.819 130.735 499.324 134.377 496.333 137.261C493.343 139.992 489.755 141.206 485.568 140.903C483.624 140.751 481.83 140.296 480.185 139.537L439.815 122.692C422.769 115.712 409.163 108.807 398.996 101.978C388.978 94.9974 383.894 84.9817 383.745 71.9309C383.894 58.8802 389.053 48.8645 399.22 41.8838Z" fill="#FF8FAB"/>
<path d="M595.017 145C587.242 145 579.542 144.089 571.916 142.268C564.44 140.447 557.263 137.792 550.385 134.301C543.507 130.659 537.452 125.879 532.218 119.961C526.985 114.042 524.144 106.986 523.696 98.7912V16.617C523.696 12.3679 525.191 8.87755 528.181 6.146C531.321 3.26269 534.985 1.82104 539.171 1.82104C548.142 2.5798 553.002 7.51177 553.749 16.617V91.7347C554.048 96.439 555.768 100.385 558.908 103.571C562.197 106.606 565.786 109.035 569.673 110.856C573.71 112.677 577.822 114.042 582.009 114.953C586.345 115.863 590.681 116.319 595.017 116.319C599.353 116.319 603.615 115.863 607.801 114.953C612.137 114.042 616.249 112.677 620.137 110.856C624.174 109.035 627.762 106.606 630.902 103.571C634.191 100.385 635.986 96.439 636.285 91.7347V16.617C636.285 12.3679 637.78 8.87755 640.77 6.146C643.91 3.26269 647.574 1.82104 651.76 1.82104C660.731 2.5798 665.666 7.51177 666.563 16.617V98.7912C666.114 106.986 663.198 114.042 657.816 119.961C652.583 125.879 646.527 130.659 639.649 134.301C632.771 137.792 625.519 140.447 617.894 142.268C610.418 144.089 602.792 145 595.017 145Z" fill="#FF8FAB"/>
<path d="M726.67 128.155C725.773 137.261 720.839 142.193 711.867 142.951C707.681 142.951 704.018 141.586 700.878 138.854C697.887 135.971 696.392 132.405 696.392 128.155V20.259C696.542 16.0099 698.112 12.5196 701.102 9.78807C704.092 6.90476 707.681 5.46311 711.867 5.46311H805.841C806.738 5.46311 807.635 5.53898 808.532 5.69074H809.878C820.345 5.99424 828.942 8.42229 835.67 12.9749C842.399 17.5275 847.258 22.763 850.249 28.6813C853.239 34.4479 854.734 40.2904 854.734 46.2088C854.734 52.2789 853.239 58.2732 850.249 64.1915C847.408 69.9581 842.548 75.1177 835.67 79.6703C828.942 84.2229 820.345 86.651 809.878 86.9545H770.405C771.601 94.5421 774.068 100.157 777.806 103.799C781.394 107.441 785.955 109.262 791.487 109.262H839.932C844.118 109.414 847.557 111.007 850.249 114.042C853.09 117.077 854.51 120.72 854.51 124.969C854.36 129.066 852.865 132.556 850.024 135.44C847.333 138.171 843.969 139.613 839.932 139.765H787.45C776.385 139.916 766.368 135.515 757.396 126.562C748.425 117.609 742.968 106.986 741.024 94.6939C738.333 81.0361 736.987 73.3726 736.987 71.7033C736.987 67.4542 738.407 63.888 741.248 61.0047C744.239 57.9697 747.827 56.4521 752.014 56.4521H811.224C814.065 56.3004 816.382 55.6934 818.177 54.6311C820.12 53.4171 821.541 52.1272 822.438 50.7614C823.335 49.2439 823.784 47.7263 823.784 46.2088C823.784 44.6913 823.335 43.2496 822.438 41.8838C821.541 40.3663 820.12 39.0764 818.177 38.0141C816.382 36.8001 814.065 36.1172 811.224 35.9655H732.501C728.614 36.1172 726.67 38.09 726.67 41.8838V128.155Z" fill="#FF8FAB"/>
<path d="M929.42 104.482C929.42 100.233 930.84 96.6667 933.681 93.7834C936.672 90.7483 940.26 89.2308 944.447 89.2308H978.762L972.93 72.3862C970.538 66.1643 968.146 60.3218 965.753 54.8587C963.51 49.2439 960.894 44.1601 957.904 39.6075C955.212 35.0549 952.147 32.6269 948.708 32.3234C945.119 32.6269 941.905 35.0549 939.064 39.6075C936.223 44.1601 933.606 49.2439 931.214 54.8587C928.971 60.3218 926.654 66.1643 924.261 72.3862L902.955 131.57C901.459 134.757 899.516 137.412 897.123 139.537C894.881 141.51 891.442 142.496 886.806 142.496C882.47 142.496 878.882 140.979 876.041 137.943C873.35 134.908 872.153 131.266 872.452 127.017C872.602 125.044 873.051 123.223 873.798 121.554L898.469 56.9074C905.347 39.911 912.225 26.1774 919.103 15.7064C925.831 5.38723 935.7 0.151753 948.708 0C961.567 0.151753 971.36 5.38723 978.089 15.7064C984.967 25.8739 991.845 39.6075 998.723 56.9074L1023.39 121.554C1024.14 123.223 1024.59 125.044 1024.74 127.017C1025.04 131.266 1023.77 134.908 1020.93 137.943C1018.24 140.979 1014.72 142.496 1010.39 142.496C1005.45 142.496 1001.79 141.51 999.395 139.537C997.153 137.412 995.284 134.757 993.788 131.57L989.527 119.733H944.447C940.26 119.733 936.746 118.216 933.905 115.181C930.915 112.297 929.42 108.731 929.42 104.482Z" fill="#FF8FAB"/>
<path d="M1177.47 142.496C1173.44 142.344 1170 140.903 1167.16 138.171C1164.32 135.288 1162.82 131.797 1162.67 127.7V71.0204C1162.82 60.2459 1164.32 50.0785 1167.16 40.5181C1170.15 30.9576 1175.01 22.9147 1181.74 16.3893C1188.61 9.71219 1197.29 6.07012 1207.75 5.46311H1294.32C1298.36 5.61486 1301.73 7.13239 1304.42 10.0157C1307.26 12.7473 1308.75 16.1617 1308.9 20.259C1308.9 24.5081 1307.48 28.1502 1304.64 31.1852C1301.95 34.2203 1298.51 35.8137 1294.32 35.9655H1215.38C1209.7 36.269 1204.99 38.4694 1201.25 42.5667C1197.51 46.6641 1195.12 51.3684 1194.07 56.6797C1193.17 61.8394 1192.8 67.5301 1192.95 73.752V127.7C1192.8 131.949 1191.23 135.515 1188.24 138.399C1185.25 141.13 1181.66 142.496 1177.47 142.496ZM1203.49 82.6295C1203.49 78.3804 1204.99 74.8142 1207.98 71.9309C1210.82 68.8959 1214.33 67.3783 1218.52 67.3783H1294.32C1298.51 67.3783 1302.03 68.8959 1304.87 71.9309C1307.86 74.8142 1309.35 78.3804 1309.35 82.6295C1309.35 86.8786 1307.93 90.5207 1305.09 93.5557C1302.1 96.439 1298.51 97.8807 1294.32 97.8807H1218.52C1214.33 97.8807 1210.74 96.439 1207.75 93.5557C1204.91 90.5207 1203.49 86.8786 1203.49 82.6295Z" fill="#FF8FAB"/>
<path d="M1344.79 1.82104C1348.97 1.82104 1352.56 3.26269 1355.55 6.146C1358.54 8.87755 1360.11 12.3679 1360.26 16.617V71.4757C1360.11 77.6975 1360.49 83.4642 1361.38 88.7755C1362.43 93.9351 1364.82 98.5636 1368.56 102.661C1372.3 106.758 1377.01 108.959 1382.69 109.262H1454.46C1458.65 109.414 1462.09 111.007 1464.78 114.042C1467.62 117.077 1469.04 120.72 1469.04 124.969C1468.89 129.066 1467.39 132.556 1464.55 135.44C1461.86 138.171 1458.5 139.613 1454.46 139.765H1375.07C1364.6 139.158 1355.93 135.591 1349.05 129.066C1342.32 122.389 1337.46 114.27 1334.47 104.71C1331.63 95.1491 1330.13 84.9817 1329.99 74.2072V16.617C1330.13 12.5196 1331.63 9.10518 1334.47 6.37363C1337.31 3.49032 1340.75 1.97279 1344.79 1.82104Z" fill="#FF8FAB"/>
<path d="M1610.79 5.46311C1618.41 5.61486 1625.21 8.04291 1631.19 12.7473C1637.18 17.4516 1641.96 23.0665 1645.55 29.5918C1649.29 36.1172 1652.05 43.022 1653.85 50.3061C1655.64 57.5903 1656.54 65.0262 1656.54 72.6138C1656.54 82.6295 1654.97 92.4935 1651.83 102.206C1648.84 111.766 1643.83 120.264 1636.8 127.7C1629.92 135.136 1621.25 139.158 1610.79 139.765H1532.51C1522.04 139.309 1513.3 135.364 1506.27 127.928C1499.24 120.492 1494.23 111.918 1491.24 102.206C1488.4 92.4935 1486.98 82.6295 1486.98 72.6138C1486.98 62.5981 1488.48 52.81 1491.47 43.2496C1494.46 33.5374 1499.39 24.9634 1506.27 17.5275C1513.3 9.93982 1522.04 5.91837 1532.51 5.46311H1610.79ZM1603.16 109.262C1608.84 108.959 1613.55 106.834 1617.29 102.889C1621.18 98.7912 1623.94 94.0869 1625.59 88.7755C1627.23 83.4642 1628.05 78.0769 1628.05 72.6138C1628.05 67.1507 1627.16 61.8394 1625.36 56.6797C1623.72 51.3684 1621.03 46.6641 1617.29 42.5667C1613.55 38.4694 1608.84 36.269 1603.16 35.9655H1539.46C1533.78 36.269 1529.07 38.4694 1525.33 42.5667C1521.6 46.6641 1518.83 51.3684 1517.04 56.6797C1515.39 61.8394 1514.57 67.1507 1514.57 72.6138C1514.57 78.0769 1515.39 83.4642 1517.04 88.7755C1518.68 94.0869 1521.37 98.7912 1525.11 102.889C1529 106.834 1533.78 108.959 1539.46 109.262H1603.16Z" fill="#FF8FAB"/>
<path d="M1728.53 145C1723.45 145 1718.37 144.089 1713.28 142.268C1708.35 140.447 1703.56 137.792 1698.93 134.301C1694.29 130.659 1690.26 125.879 1686.82 119.961C1683.38 114.042 1681.51 106.986 1681.21 98.7912V16.617C1681.21 12.3679 1682.7 8.87755 1685.69 6.146C1688.83 3.26269 1692.5 1.82104 1696.68 1.82104C1705.66 2.5798 1710.52 7.51177 1711.26 16.617V96.9702C1711.41 100.612 1712.16 103.723 1713.51 106.303C1714.85 108.731 1716.35 110.704 1717.99 112.221C1719.64 113.587 1721.28 114.649 1722.93 115.408C1724.72 116.015 1726.51 116.319 1728.31 116.319C1730.1 116.319 1731.9 116.015 1733.69 115.408C1735.49 114.649 1737.2 113.587 1738.85 112.221C1740.49 110.704 1741.99 108.731 1743.33 106.303C1744.68 103.723 1745.35 100.612 1745.35 96.9702V16.617C1745.35 12.3679 1746.85 8.87755 1749.84 6.146C1752.98 3.26269 1756.64 1.82104 1760.83 1.82104C1769.8 2.5798 1774.73 7.51177 1775.63 16.617V96.9702C1775.78 100.612 1776.53 103.647 1777.87 106.075C1779.22 108.655 1780.72 110.704 1782.36 112.221C1784 113.587 1785.65 114.649 1787.29 115.408C1789.09 116.015 1790.88 116.319 1792.68 116.319C1794.47 116.319 1796.27 116.015 1798.06 115.408C1799.85 114.649 1801.57 113.587 1803.22 112.221C1804.86 110.704 1806.36 108.731 1807.7 106.303C1809.05 103.723 1809.72 100.612 1809.72 96.9702V16.617C1809.72 12.3679 1811.22 8.87755 1814.21 6.146C1817.35 3.26269 1821.01 1.82104 1825.2 1.82104C1834.17 2.5798 1839.1 7.51177 1840 16.617V98.7912C1840 106.986 1838.21 114.042 1834.62 119.961C1831.18 125.879 1827.14 130.659 1822.51 134.301C1818.02 137.792 1813.24 140.447 1808.15 142.268C1803.22 144.089 1798.13 145 1792.9 145C1787.82 145 1782.73 144.089 1777.65 142.268C1772.72 140.447 1767.93 137.716 1763.3 134.074C1762.4 133.467 1761.58 132.784 1760.83 132.025C1759.93 132.784 1759.11 133.467 1758.36 134.074C1753.73 137.716 1748.87 140.447 1743.78 142.268C1738.85 144.089 1733.77 145 1728.53 145Z" fill="#FF8FAB"/>
<path d="M613.469 66.8986C619.299 65.0056 620.451 62.4792 619.29 57.9875C617.968 58.4153 616.367 57.9861 616.135 57.2681C615.901 56.5556 616.942 55.2639 618.264 54.8333C616.565 50.5181 614.147 49.1542 608.318 51.0458C606.088 51.7708 603.821 53.1181 601.853 54.7056C602.753 52.3431 603.333 49.7708 603.333 47.425C603.333 41.2972 601.287 39.4181 596.657 39.1361C596.657 40.525 595.751 41.9139 595 41.9139C594.249 41.9139 593.342 40.525 593.342 39.1361C588.711 39.4181 586.667 41.2972 586.667 47.425C586.667 49.7708 587.246 52.3431 588.147 54.7042C586.181 53.1181 583.912 51.7722 581.682 51.0472C575.853 49.1528 573.435 50.5181 571.735 54.8347C573.056 55.2653 574.097 56.5542 573.865 57.2694C573.633 57.9847 572.032 58.4167 570.711 57.9889C569.549 62.4792 570.704 65.0056 576.531 66.8986C578.761 67.6222 581.388 67.8667 583.911 67.7389C581.794 69.1194 579.814 70.8597 578.435 72.7569C574.832 77.7153 575.383 80.4375 578.964 83.3875C579.781 82.2639 581.329 81.6722 581.939 82.1139C582.547 82.5542 582.464 84.2125 581.647 85.3361C585.558 87.8292 588.318 87.5097 591.919 82.5542C593.299 80.6569 594.34 78.2333 595 75.7944C595.66 78.2347 596.703 80.6569 598.081 82.5542C601.683 87.5125 604.442 87.8292 608.354 85.3361C607.539 84.2111 607.453 82.5556 608.062 82.1125C608.669 81.6722 610.219 82.2611 611.037 83.3861C614.617 80.4375 615.167 77.7153 611.567 72.7569C610.188 70.8597 608.206 69.1194 606.09 67.7389C608.612 67.8667 611.237 67.6222 613.469 66.8986ZM595 66.2458C594.775 65.8403 594.51 65.4986 594.183 65.2611C593.858 65.0236 593.45 64.8778 592.994 64.7875C593.311 64.4486 593.554 64.0903 593.679 63.7069C593.804 63.325 593.818 62.8917 593.761 62.4306C594.181 62.6264 594.597 62.7472 595 62.7472C595.403 62.7472 595.819 62.6264 596.242 62.4292C596.185 62.8903 596.199 63.3236 596.324 63.7056C596.449 64.0889 596.692 64.4472 597.007 64.7861C596.553 64.8764 596.144 65.0222 595.819 65.2597C595.492 65.4986 595.225 65.8403 595 66.2458Z" fill="#F4ABBA"/>
<path d="M593.326 63.9514C593.287 64.1295 593.213 64.2981 593.108 64.4476C593.004 64.597 592.87 64.7244 592.717 64.8224C592.563 64.9205 592.391 64.9872 592.211 65.0189C592.032 65.0505 591.848 65.0465 591.669 65.0069L583.533 63.1986C583.352 63.1619 583.181 63.0895 583.028 62.9856C582.876 62.8817 582.745 62.7485 582.645 62.5938C582.544 62.439 582.476 62.2657 582.443 62.0841C582.41 61.9025 582.414 61.7162 582.454 61.5361C582.494 61.356 582.57 61.1856 582.676 61.035C582.783 60.8844 582.919 60.7566 583.075 60.6589C583.232 60.5613 583.406 60.4959 583.588 60.4664C583.771 60.437 583.957 60.4442 584.136 60.4875L592.271 62.2958C593.021 62.4625 593.493 63.2028 593.326 63.9514ZM594.682 64.2542C594.721 64.076 594.796 63.9074 594.9 63.758C595.005 63.6085 595.138 63.4811 595.292 63.3831C595.446 63.2851 595.617 63.2183 595.797 63.1867C595.977 63.155 596.161 63.1591 596.339 63.1986L604.474 65.0069C604.655 65.0428 604.828 65.1146 604.981 65.2181C605.135 65.3216 605.266 65.4548 605.367 65.6097C605.469 65.7647 605.538 65.9384 605.571 66.1205C605.604 66.3027 605.601 66.4896 605.561 66.6703C605.521 66.8511 605.445 67.022 605.338 67.173C605.231 67.324 605.094 67.4521 604.937 67.5497C604.78 67.6473 604.604 67.7125 604.422 67.7414C604.239 67.7703 604.052 67.7624 603.872 67.7181L595.737 65.9097C595.559 65.8706 595.391 65.7967 595.241 65.6922C595.092 65.5878 594.964 65.4549 594.866 65.3011C594.768 65.1473 594.701 64.9756 594.67 64.796C594.638 64.6163 594.642 64.4322 594.682 64.2542Z" fill="white"/>
<path d="M594.682 64.2542C594.371 64.4515 593.994 64.5173 593.635 64.4371C593.276 64.3569 592.963 64.1372 592.765 63.8264L588.292 56.7972C588.094 56.4865 588.028 56.11 588.108 55.7506C588.188 55.3911 588.407 55.0782 588.718 54.8806C589.029 54.6829 589.405 54.6168 589.765 54.6968C590.124 54.7768 590.437 54.9962 590.635 55.3069L595.11 62.3375C595.307 62.6485 595.372 63.025 595.292 63.3843C595.212 63.7436 594.992 64.0564 594.682 64.2542ZM595.789 65.9931C596.1 65.7956 596.476 65.7295 596.836 65.8095C597.195 65.8894 597.508 66.1088 597.706 66.4194L602.182 73.45C602.38 73.7611 602.446 74.138 602.366 74.4978C602.286 74.8577 602.066 75.1709 601.755 75.3688C601.444 75.5666 601.067 75.6327 600.707 75.5526C600.347 75.4725 600.034 75.2527 599.836 74.9417L595.362 67.9111C595.166 67.5999 595.1 67.2235 595.18 66.8641C595.26 66.5047 595.479 66.1915 595.789 65.9931Z" fill="white"/>
<path d="M594.983 62.8986C594.624 62.8186 594.311 62.5991 594.113 62.2884C593.915 61.9777 593.849 61.6012 593.929 61.2417L595.737 53.1069C595.771 52.9234 595.842 52.7486 595.945 52.593C596.048 52.4373 596.181 52.304 596.337 52.201C596.492 52.098 596.667 52.0275 596.851 51.9935C597.034 51.9596 597.223 51.963 597.405 52.0035C597.587 52.044 597.759 52.1208 597.911 52.2294C598.063 52.3379 598.191 52.4759 598.289 52.6352C598.386 52.7944 598.45 52.9717 598.477 53.1563C598.505 53.3409 598.494 53.5291 598.447 53.7097L596.64 61.8444C596.56 62.2039 596.341 62.5169 596.03 62.7146C595.719 62.9123 595.343 62.9785 594.983 62.8986ZM594.682 64.2542C594.86 64.2934 595.029 64.3675 595.178 64.472C595.327 64.5765 595.455 64.7094 595.552 64.8632C595.65 65.017 595.717 65.1886 595.749 65.3682C595.78 65.5478 595.776 65.7318 595.736 65.9097L593.931 74.0444C593.851 74.4043 593.631 74.7178 593.32 74.9159C593.01 75.114 592.633 75.1804 592.273 75.1007C591.913 75.0209 591.6 74.8015 591.401 74.4906C591.203 74.1798 591.137 73.8029 591.217 73.4431L593.026 65.3083C593.066 65.1303 593.14 64.9618 593.244 64.8124C593.349 64.663 593.481 64.535 593.635 64.4371C593.789 64.3392 593.961 64.2732 594.14 64.2417C594.32 64.2102 594.504 64.2144 594.682 64.2542Z" fill="white"/>
<path d="M594.682 64.2528C594.584 64.099 594.517 63.9273 594.486 63.7477C594.454 63.5681 594.458 63.3841 594.498 63.2061C594.537 63.028 594.612 62.8596 594.716 62.7103C594.821 62.561 594.954 62.4339 595.108 62.3361L602.139 57.8625C602.293 57.7646 602.464 57.6981 602.644 57.6665C602.823 57.635 603.008 57.6391 603.186 57.6787C603.364 57.7183 603.532 57.7926 603.681 57.8973C603.831 58.002 603.958 58.135 604.056 58.2889C604.153 58.4427 604.22 58.6143 604.252 58.7939C604.283 58.9735 604.279 59.1576 604.239 59.3355C604.2 59.5135 604.125 59.6819 604.021 59.8312C603.916 59.9805 603.783 60.1077 603.629 60.2056L596.599 64.6792C596.445 64.7773 596.273 64.8442 596.094 64.8759C595.914 64.9075 595.731 64.9028 595.552 64.8632C595.374 64.8236 595.205 64.7499 595.056 64.645C594.907 64.5401 594.78 64.4069 594.682 64.2528Z" fill="white"/>
<path d="M594.682 64.2528C594.78 64.4067 594.847 64.5784 594.878 64.7581C594.91 64.9379 594.906 65.1229 594.866 65.3011C594.826 65.4792 594.752 65.6469 594.648 65.7963C594.543 65.9456 594.41 66.0729 594.256 66.1708L587.225 70.6458C586.914 70.8436 586.537 70.9098 586.178 70.8299C585.818 70.7499 585.505 70.5303 585.307 70.2194C585.109 69.9086 585.043 69.5318 585.123 69.1721C585.203 68.8124 585.422 68.4992 585.733 68.3014L592.764 63.8264C593.075 63.6292 593.452 63.5633 593.811 63.6433C594.171 63.7232 594.484 63.9424 594.682 64.2528Z" fill="white"/>
<path d="M600.572 73.5083C600.88 73.3 601.227 73.1555 601.591 73.0834C601.956 73.0113 602.331 73.0131 602.695 73.0887C603.059 73.1643 603.404 73.3121 603.71 73.5234C604.016 73.7347 604.276 74.0052 604.476 74.3189C604.675 74.6326 604.809 74.9831 604.871 75.3497C604.932 75.7163 604.92 76.0915 604.834 76.4531C604.748 76.8147 604.59 77.1554 604.37 77.455C604.15 77.7545 603.872 78.0069 603.553 78.1972C602.932 78.5674 602.19 78.6809 601.487 78.5135C600.783 78.3461 600.173 77.911 599.785 77.3007C599.397 76.6904 599.262 75.9528 599.409 75.2447C599.556 74.5366 599.973 73.9137 600.572 73.5083ZM590.208 57.2236C589.901 57.4299 589.555 57.5725 589.192 57.6432C588.828 57.714 588.454 57.7113 588.092 57.6353C587.729 57.5594 587.386 57.4118 587.081 57.2011C586.776 56.9904 586.517 56.721 586.318 56.4087C586.119 56.0963 585.985 55.7473 585.923 55.3822C585.861 55.0172 585.872 54.6434 585.957 54.2828C586.041 53.9223 586.197 53.5822 586.415 53.2828C586.633 52.9833 586.908 52.7304 587.225 52.5389C587.846 52.1639 588.589 52.0466 589.295 52.2121C590.001 52.3775 590.615 52.8127 591.004 53.4245C591.394 54.0363 591.529 54.7762 591.38 55.4861C591.231 56.196 590.811 56.8196 590.208 57.2236ZM592.875 72.3875C593.243 72.4545 593.594 72.5951 593.906 72.8009C594.219 73.0067 594.486 73.2734 594.693 73.5851C594.9 73.8967 595.042 74.2469 595.111 74.6147C595.179 74.9825 595.172 75.3604 595.091 75.7256C595.01 76.0908 594.856 76.4359 594.639 76.7402C594.421 77.0446 594.144 77.3019 593.825 77.4967C593.506 77.6916 593.15 77.8199 592.78 77.8742C592.41 77.9285 592.033 77.9075 591.671 77.8125C590.975 77.6299 590.378 77.1851 590.003 76.5713C589.629 75.9575 589.507 75.2225 589.662 74.5205C589.818 73.8186 590.24 73.2043 590.839 72.8066C591.438 72.4089 592.168 72.2587 592.875 72.3875ZM597.093 53.4083C596.737 53.3292 596.4 53.1806 596.101 52.9712C595.802 52.7618 595.548 52.4956 595.352 52.1878C594.957 51.5662 594.824 50.813 594.984 50.0938C595.144 49.3745 595.583 48.7483 596.205 48.3528C596.826 47.9572 597.579 47.8249 598.299 47.9847C599.018 48.1446 599.644 48.5836 600.04 49.2052C600.435 49.8268 600.568 50.5801 600.408 51.2993C600.248 52.0185 599.809 52.6448 599.187 53.0403C598.566 53.4358 597.812 53.5682 597.093 53.4083ZM588.742 68.0333C588.938 68.3411 589.071 68.6845 589.135 69.0439C589.198 69.4033 589.19 69.7716 589.111 70.1279C589.032 70.4842 588.884 70.8214 588.674 71.1204C588.465 71.4193 588.199 71.6741 587.891 71.8701C587.583 72.0662 587.24 72.1997 586.88 72.2631C586.521 72.3265 586.153 72.3184 585.796 72.2394C585.44 72.1604 585.103 72.012 584.804 71.8027C584.505 71.5934 584.25 71.3272 584.054 71.0194C583.658 70.3978 583.525 69.6444 583.685 68.9249C583.844 68.2053 584.283 67.5786 584.905 67.1826C585.526 66.7867 586.28 66.6538 586.999 66.8134C587.719 66.9729 588.346 67.4117 588.742 68.0333ZM601.713 59.7792C601.517 59.4712 601.383 59.1277 601.32 58.7682C601.257 58.4088 601.266 58.0404 601.345 57.6842C601.424 57.328 601.573 56.9909 601.783 56.6921C601.992 56.3934 602.259 56.1389 602.567 55.9431C602.875 55.7473 603.218 55.614 603.578 55.551C603.937 55.488 604.305 55.4963 604.662 55.5757C605.018 55.655 605.355 55.8037 605.654 56.0133C605.952 56.2229 606.207 56.4893 606.403 56.7972C606.798 57.4192 606.93 58.1728 606.77 58.8922C606.61 59.6116 606.171 60.2379 605.549 60.6333C604.927 61.0288 604.173 61.1609 603.454 61.0007C602.734 60.8405 602.108 60.4011 601.713 59.7792ZM602.817 66.0625C602.977 65.3431 603.416 64.7167 604.037 64.3208C604.659 63.9249 605.412 63.7921 606.132 63.9514C606.668 64.0707 607.157 64.3462 607.536 64.7432C607.916 65.1402 608.169 65.6408 608.265 66.1818C608.36 66.7228 608.292 67.2798 608.071 67.7825C607.85 68.2852 607.484 68.7109 607.021 69.006C606.557 69.301 606.017 69.452 605.468 69.44C604.919 69.428 604.386 69.2534 603.936 68.9384C603.486 68.6234 603.139 68.182 602.94 67.6701C602.741 67.1582 602.698 66.5988 602.817 66.0625ZM585.192 62.1444C585.032 62.8637 584.593 63.4899 583.971 63.8854C583.35 64.281 582.596 64.4133 581.877 64.2535C581.158 64.0936 580.532 63.6546 580.136 63.033C579.741 62.4114 579.608 61.6581 579.768 60.9389C579.928 60.2197 580.367 59.5934 580.989 59.1979C581.61 58.8024 582.363 58.67 583.083 58.8299C583.802 58.9897 584.428 59.4288 584.824 60.0504C585.219 60.672 585.352 61.4252 585.192 62.1444Z" fill="#EA596E"/>
<path d="M595 69.6917C598.068 69.6917 600.556 67.2044 600.556 64.1361C600.556 61.0679 598.068 58.5806 595 58.5806C591.932 58.5806 589.444 61.0679 589.444 64.1361C589.444 67.2044 591.932 69.6917 595 69.6917Z" fill="#FFCC4D"/>
<path d="M1590.47 76.8986C1596.3 75.0056 1597.45 72.4792 1596.29 67.9875C1594.97 68.4153 1593.37 67.9861 1593.13 67.2681C1592.9 66.5556 1593.94 65.2639 1595.26 64.8333C1593.57 60.5181 1591.15 59.1542 1585.32 61.0458C1583.09 61.7708 1580.82 63.1181 1578.85 64.7056C1579.75 62.3431 1580.33 59.7708 1580.33 57.425C1580.33 51.2972 1578.29 49.4181 1573.66 49.1361C1573.66 50.525 1572.75 51.9139 1572 51.9139C1571.25 51.9139 1570.34 50.525 1570.34 49.1361C1565.71 49.4181 1563.67 51.2972 1563.67 57.425C1563.67 59.7708 1564.25 62.3431 1565.15 64.7042C1563.18 63.1181 1560.91 61.7722 1558.68 61.0472C1552.85 59.1528 1550.43 60.5181 1548.73 64.8347C1550.06 65.2653 1551.1 66.5542 1550.87 67.2694C1550.63 67.9847 1549.03 68.4167 1547.71 67.9889C1546.55 72.4792 1547.7 75.0056 1553.53 76.8986C1555.76 77.6222 1558.39 77.8667 1560.91 77.7389C1558.79 79.1194 1556.81 80.8597 1555.43 82.7569C1551.83 87.7153 1552.38 90.4375 1555.96 93.3875C1556.78 92.2639 1558.33 91.6722 1558.94 92.1139C1559.55 92.5542 1559.46 94.2125 1558.65 95.3361C1562.56 97.8292 1565.32 97.5097 1568.92 92.5542C1570.3 90.6569 1571.34 88.2333 1572 85.7944C1572.66 88.2347 1573.7 90.6569 1575.08 92.5542C1578.68 97.5125 1581.44 97.8292 1585.35 95.3361C1584.54 94.2111 1584.45 92.5556 1585.06 92.1125C1585.67 91.6722 1587.22 92.2611 1588.04 93.3861C1591.62 90.4375 1592.17 87.7153 1588.57 82.7569C1587.19 80.8597 1585.21 79.1194 1583.09 77.7389C1585.61 77.8667 1588.24 77.6222 1590.47 76.8986ZM1572 76.2458C1571.78 75.8403 1571.51 75.4986 1571.18 75.2611C1570.86 75.0236 1570.45 74.8778 1569.99 74.7875C1570.31 74.4486 1570.55 74.0903 1570.68 73.7069C1570.8 73.325 1570.82 72.8917 1570.76 72.4306C1571.18 72.6264 1571.6 72.7472 1572 72.7472C1572.4 72.7472 1572.82 72.6264 1573.24 72.4292C1573.18 72.8903 1573.2 73.3236 1573.32 73.7056C1573.45 74.0889 1573.69 74.4472 1574.01 74.7861C1573.55 74.8764 1573.14 75.0222 1572.82 75.2597C1572.49 75.4986 1572.22 75.8403 1572 76.2458Z" fill="#F4ABBA"/>
<path d="M1570.33 73.9514C1570.29 74.1295 1570.21 74.2981 1570.11 74.4476C1570 74.597 1569.87 74.7244 1569.72 74.8224C1569.56 74.9205 1569.39 74.9872 1569.21 75.0189C1569.03 75.0505 1568.85 75.0465 1568.67 75.0069L1560.53 73.1986C1560.35 73.1619 1560.18 73.0894 1560.03 72.9856C1559.88 72.8817 1559.75 72.7485 1559.64 72.5938C1559.54 72.439 1559.48 72.2657 1559.44 72.0841C1559.41 71.9025 1559.41 71.7162 1559.45 71.5361C1559.49 71.356 1559.57 71.1856 1559.68 71.035C1559.78 70.8844 1559.92 70.7566 1560.08 70.6589C1560.23 70.5613 1560.41 70.4959 1560.59 70.4664C1560.77 70.437 1560.96 70.4442 1561.14 70.4875L1569.27 72.2958C1570.02 72.4625 1570.49 73.2028 1570.33 73.9514ZM1571.68 74.2542C1571.72 74.076 1571.8 73.9074 1571.9 73.758C1572 73.6085 1572.14 73.4811 1572.29 73.3831C1572.45 73.2851 1572.62 73.2184 1572.8 73.1867C1572.98 73.155 1573.16 73.1591 1573.34 73.1986L1581.47 75.0069C1581.66 75.0428 1581.83 75.1146 1581.98 75.2181C1582.13 75.3216 1582.27 75.4548 1582.37 75.6097C1582.47 75.7647 1582.54 75.9384 1582.57 76.1205C1582.6 76.3027 1582.6 76.4896 1582.56 76.6703C1582.52 76.8511 1582.44 77.022 1582.34 77.173C1582.23 77.324 1582.09 77.4521 1581.94 77.5497C1581.78 77.6473 1581.6 77.7125 1581.42 77.7414C1581.24 77.7703 1581.05 77.7624 1580.87 77.7181L1572.74 75.9097C1572.56 75.8706 1572.39 75.7967 1572.24 75.6922C1572.09 75.5878 1571.96 75.4549 1571.87 75.3011C1571.77 75.1473 1571.7 74.9756 1571.67 74.796C1571.64 74.6163 1571.64 74.4322 1571.68 74.2542Z" fill="white"/>
<path d="M1571.68 74.2542C1571.37 74.4515 1570.99 74.5173 1570.64 74.4371C1570.28 74.3569 1569.96 74.1372 1569.77 73.8264L1565.29 66.7972C1565.09 66.4865 1565.03 66.11 1565.11 65.7506C1565.19 65.3911 1565.41 65.0782 1565.72 64.8806C1566.03 64.6829 1566.41 64.6168 1566.76 64.6968C1567.12 64.7768 1567.44 64.9962 1567.63 65.3069L1572.11 72.3375C1572.31 72.6485 1572.37 73.025 1572.29 73.3843C1572.21 73.7436 1571.99 74.0564 1571.68 74.2542ZM1572.79 75.9931C1573.1 75.7956 1573.48 75.7295 1573.84 75.8095C1574.19 75.8894 1574.51 76.1088 1574.71 76.4194L1579.18 83.45C1579.38 83.7611 1579.45 84.138 1579.37 84.4978C1579.29 84.8577 1579.07 85.1709 1578.75 85.3688C1578.44 85.5666 1578.07 85.6327 1577.71 85.5526C1577.35 85.4725 1577.03 85.2527 1576.84 84.9417L1572.36 77.9111C1572.17 77.5999 1572.1 77.2235 1572.18 76.8641C1572.26 76.5047 1572.48 76.1915 1572.79 75.9931Z" fill="white"/>
<path d="M1571.98 72.8986C1571.62 72.8186 1571.31 72.5991 1571.11 72.2884C1570.92 71.9777 1570.85 71.6012 1570.93 71.2417L1572.74 63.1069C1572.77 62.9234 1572.84 62.7486 1572.94 62.593C1573.05 62.4373 1573.18 62.304 1573.34 62.201C1573.49 62.098 1573.67 62.0275 1573.85 61.9935C1574.03 61.9596 1574.22 61.963 1574.4 62.0035C1574.59 62.044 1574.76 62.1208 1574.91 62.2294C1575.06 62.3379 1575.19 62.4759 1575.29 62.6352C1575.39 62.7944 1575.45 62.9717 1575.48 63.1563C1575.5 63.3409 1575.49 63.5291 1575.45 63.7097L1573.64 71.8444C1573.56 72.2039 1573.34 72.5169 1573.03 72.7146C1572.72 72.9123 1572.34 72.9785 1571.98 72.8986ZM1571.68 74.2542C1571.86 74.2934 1572.03 74.3675 1572.18 74.472C1572.33 74.5765 1572.45 74.7094 1572.55 74.8632C1572.65 75.017 1572.72 75.1886 1572.75 75.3682C1572.78 75.5478 1572.78 75.7318 1572.74 75.9097L1570.93 84.0444C1570.85 84.4043 1570.63 84.7178 1570.32 84.9159C1570.01 85.114 1569.63 85.1804 1569.27 85.1007C1568.91 85.0209 1568.6 84.8015 1568.4 84.4906C1568.2 84.1798 1568.14 83.8029 1568.22 83.4431L1570.03 75.3083C1570.07 75.1303 1570.14 74.9618 1570.24 74.8124C1570.35 74.663 1570.48 74.535 1570.64 74.4371C1570.79 74.3392 1570.96 74.2732 1571.14 74.2417C1571.32 74.2102 1571.5 74.2144 1571.68 74.2542Z" fill="white"/>
<path d="M1571.68 74.2528C1571.58 74.099 1571.52 73.9273 1571.49 73.7477C1571.45 73.5681 1571.46 73.3841 1571.5 73.2061C1571.54 73.028 1571.61 72.8596 1571.72 72.7103C1571.82 72.561 1571.95 72.4339 1572.11 72.3361L1579.14 67.8625C1579.29 67.7646 1579.46 67.6981 1579.64 67.6665C1579.82 67.635 1580.01 67.6391 1580.19 67.6787C1580.36 67.7183 1580.53 67.7926 1580.68 67.8973C1580.83 68.002 1580.96 68.135 1581.06 68.2889C1581.15 68.4427 1581.22 68.6143 1581.25 68.7939C1581.28 68.9735 1581.28 69.1575 1581.24 69.3355C1581.2 69.5135 1581.13 69.6819 1581.02 69.8312C1580.92 69.9805 1580.78 70.1077 1580.63 70.2056L1573.6 74.6792C1573.44 74.7773 1573.27 74.8442 1573.09 74.8759C1572.91 74.9075 1572.73 74.9028 1572.55 74.8632C1572.37 74.8236 1572.21 74.7499 1572.06 74.645C1571.91 74.5401 1571.78 74.4069 1571.68 74.2528Z" fill="white"/>
<path d="M1571.68 74.2528C1571.78 74.4067 1571.85 74.5784 1571.88 74.7581C1571.91 74.9379 1571.91 75.1229 1571.87 75.3011C1571.83 75.4792 1571.75 75.6469 1571.65 75.7963C1571.54 75.9456 1571.41 76.0729 1571.26 76.1708L1564.22 80.6458C1563.91 80.8436 1563.54 80.9098 1563.18 80.8299C1562.82 80.7499 1562.5 80.5303 1562.31 80.2194C1562.11 79.9086 1562.04 79.5318 1562.12 79.1721C1562.2 78.8124 1562.42 78.4992 1562.73 78.3014L1569.76 73.8264C1570.07 73.6292 1570.45 73.5633 1570.81 73.6433C1571.17 73.7232 1571.48 73.9424 1571.68 74.2528Z" fill="white"/>
<path d="M1577.57 83.5083C1577.88 83.3 1578.23 83.1555 1578.59 83.0834C1578.96 83.0113 1579.33 83.0131 1579.7 83.0887C1580.06 83.1643 1580.4 83.3121 1580.71 83.5234C1581.02 83.7347 1581.28 84.0052 1581.48 84.3189C1581.68 84.6326 1581.81 84.9831 1581.87 85.3497C1581.93 85.7163 1581.92 86.0915 1581.83 86.4531C1581.75 86.8147 1581.59 87.1554 1581.37 87.455C1581.15 87.7545 1580.87 88.0069 1580.55 88.1972C1579.93 88.5674 1579.19 88.6809 1578.49 88.5135C1577.78 88.3461 1577.17 87.911 1576.78 87.3007C1576.4 86.6904 1576.26 85.9528 1576.41 85.2447C1576.56 84.5366 1576.97 83.9137 1577.57 83.5083ZM1567.21 67.2236C1566.9 67.4299 1566.56 67.5725 1566.19 67.6432C1565.83 67.714 1565.45 67.7113 1565.09 67.6353C1564.73 67.5594 1564.39 67.4118 1564.08 67.2011C1563.78 66.9904 1563.52 66.721 1563.32 66.4087C1563.12 66.0963 1562.98 65.7473 1562.92 65.3822C1562.86 65.0172 1562.87 64.6434 1562.96 64.2828C1563.04 63.9223 1563.2 63.5822 1563.41 63.2828C1563.63 62.9833 1563.91 62.7304 1564.22 62.5389C1564.85 62.1639 1565.59 62.0466 1566.29 62.2121C1567 62.3775 1567.61 62.8127 1568 63.4245C1568.39 64.0363 1568.53 64.7762 1568.38 65.4861C1568.23 66.196 1567.81 66.8196 1567.21 67.2236ZM1569.88 82.3875C1570.24 82.4545 1570.59 82.5951 1570.91 82.8009C1571.22 83.0067 1571.49 83.2734 1571.69 83.5851C1571.9 83.8967 1572.04 84.2469 1572.11 84.6147C1572.18 84.9825 1572.17 85.3604 1572.09 85.7256C1572.01 86.0908 1571.86 86.4359 1571.64 86.7402C1571.42 87.0446 1571.14 87.3019 1570.83 87.4967C1570.51 87.6916 1570.15 87.8199 1569.78 87.8742C1569.41 87.9285 1569.03 87.9075 1568.67 87.8125C1567.98 87.6299 1567.38 87.1851 1567 86.5713C1566.63 85.9575 1566.51 85.2225 1566.66 84.5205C1566.82 83.8186 1567.24 83.2043 1567.84 82.8066C1568.44 82.4089 1569.17 82.2587 1569.88 82.3875ZM1574.09 63.4083C1573.74 63.3292 1573.4 63.1806 1573.1 62.9712C1572.8 62.7618 1572.55 62.4956 1572.35 62.1878C1571.96 61.5662 1571.82 60.813 1571.98 60.0938C1572.14 59.3745 1572.58 58.7483 1573.2 58.3528C1573.83 57.9572 1574.58 57.8249 1575.3 57.9847C1576.02 58.1446 1576.64 58.5836 1577.04 59.2052C1577.44 59.8268 1577.57 60.5801 1577.41 61.2993C1577.25 62.0185 1576.81 62.6448 1576.19 63.0403C1575.57 63.4358 1574.81 63.5682 1574.09 63.4083ZM1565.74 78.0333C1565.94 78.3411 1566.07 78.6845 1566.13 79.0439C1566.2 79.4033 1566.19 79.7716 1566.11 80.1279C1566.03 80.4842 1565.88 80.8214 1565.67 81.1204C1565.46 81.4193 1565.2 81.6741 1564.89 81.8701C1564.58 82.0662 1564.24 82.1997 1563.88 82.2631C1563.52 82.3265 1563.15 82.3184 1562.8 82.2394C1562.44 82.1604 1562.1 82.012 1561.8 81.8027C1561.51 81.5934 1561.25 81.3272 1561.05 81.0194C1560.66 80.3978 1560.53 79.6444 1560.68 78.9249C1560.84 78.2053 1561.28 77.5786 1561.9 77.1826C1562.53 76.7867 1563.28 76.6538 1564 76.8134C1564.72 76.9729 1565.35 77.4117 1565.74 78.0333ZM1578.71 69.7792C1578.52 69.4712 1578.38 69.1277 1578.32 68.7682C1578.26 68.4088 1578.27 68.0404 1578.35 67.6842C1578.42 67.328 1578.57 66.9909 1578.78 66.6921C1578.99 66.3934 1579.26 66.1389 1579.57 65.9431C1579.87 65.7473 1580.22 65.614 1580.58 65.551C1580.94 65.488 1581.31 65.4963 1581.66 65.5757C1582.02 65.655 1582.35 65.8037 1582.65 66.0133C1582.95 66.2229 1583.21 66.4893 1583.4 66.7972C1583.8 67.4192 1583.93 68.1728 1583.77 68.8922C1583.61 69.6116 1583.17 70.2379 1582.55 70.6333C1581.93 71.0288 1581.17 71.1609 1580.45 71.0007C1579.73 70.8405 1579.11 70.4011 1578.71 69.7792ZM1579.82 76.0625C1579.98 75.3431 1580.42 74.7167 1581.04 74.3208C1581.66 73.9249 1582.41 73.7921 1583.13 73.9514C1583.67 74.0707 1584.16 74.3462 1584.54 74.7432C1584.92 75.1402 1585.17 75.6408 1585.26 76.1818C1585.36 76.7228 1585.29 77.2798 1585.07 77.7825C1584.85 78.2852 1584.48 78.7109 1584.02 79.006C1583.56 79.301 1583.02 79.452 1582.47 79.44C1581.92 79.428 1581.39 79.2534 1580.94 78.9384C1580.49 78.6234 1580.14 78.182 1579.94 77.6701C1579.74 77.1582 1579.7 76.5988 1579.82 76.0625ZM1562.19 72.1444C1562.03 72.8637 1561.59 73.4899 1560.97 73.8854C1560.35 74.281 1559.6 74.4133 1558.88 74.2535C1558.16 74.0936 1557.53 73.6546 1557.14 73.033C1556.74 72.4114 1556.61 71.6581 1556.77 70.9389C1556.93 70.2197 1557.37 69.5934 1557.99 69.1979C1558.61 68.8024 1559.36 68.67 1560.08 68.8299C1560.8 68.9897 1561.43 69.4287 1561.82 70.0504C1562.22 70.672 1562.35 71.4252 1562.19 72.1444Z" fill="#EA596E"/>
<path d="M1572 79.6917C1575.07 79.6917 1577.56 77.2044 1577.56 74.1361C1577.56 71.0679 1575.07 68.5806 1572 68.5806C1568.93 68.5806 1566.44 71.0679 1566.44 74.1361C1566.44 77.2044 1568.93 79.6917 1572 79.6917Z" fill="#FFCC4D"/>
</svg>
