<svg width="216" height="137" viewBox="0 0 216 137" fill="none" xmlns="http://www.w3.org/2000/svg">
<path d="M6.15526 127.496L4.83166 131.449H9H24.7381H26.8975L27.5829 129.401L36.4895 102.793H84.5364L93.5253 129.409L94.2143 131.449H96.3676H112.106H116.274L114.95 127.496L73.9464 5.04739L73.2608 3H71.1016H50.0041H47.8449L47.1593 5.04739L6.15526 127.496ZM60.406 31.3416L77.7143 82.5918H43.2512L60.406 31.3416ZM141.952 127.618L141.965 127.626L141.978 127.634C149.254 131.912 157.678 134 167.148 134C176.575 134 185.153 131.651 192.801 126.918L192.807 126.915C200.546 122.103 206.326 115.333 210.131 106.7L211.446 103.717L208.364 102.654L193.817 97.6367L191.31 96.7721L190.144 99.1542C187.814 103.916 184.662 107.462 180.71 109.913C176.772 112.354 172.063 113.629 166.467 113.629C158.177 113.629 152.152 110.933 147.945 105.799C144.722 101.865 142.595 96.5835 141.737 89.7823H190.605H193.605H201.091H204.091H208.918H211.795L211.915 86.9073C212.382 75.705 210.932 65.8673 207.436 57.4888C203.996 49.1073 198.75 42.542 191.675 37.9286C184.632 33.2992 176.179 31.0612 166.467 31.0612C157.099 31.0612 148.776 33.1834 141.606 37.5309C134.508 41.813 129 47.9224 125.079 55.7585C121.141 63.5734 119.23 72.7282 119.23 83.1258C119.23 93.1013 121.181 101.982 125.183 109.68L125.188 109.688C129.178 117.302 134.772 123.3 141.952 127.618ZM184.367 57.9538C186.938 61.1829 188.794 65.6875 189.786 71.6225H142.273C143.339 66.1946 145.269 61.8796 147.954 58.5709C152.142 53.4112 158.315 50.6667 166.978 50.6667C175.019 50.6667 180.63 53.2123 184.358 57.9422L184.363 57.948L184.367 57.9538Z" stroke="url(#paint0_linear_606_808)" stroke-width="6"/>
<defs>
<linearGradient id="paint0_linear_606_808" x1="35.3719" y1="-28.4388" x2="216.491" y2="160.415" gradientUnits="userSpaceOnUse">
<stop stop-color="#FB6F92"/>
<stop offset="1" stop-color="#FFDEE6"/>
</linearGradient>
</defs>
</svg>
