<svg width="212" height="154" viewBox="0 0 212 154" fill="none" xmlns="http://www.w3.org/2000/svg">
<path d="M3 145.197V148.197H6H23.1082H26.1082V145.197V96.7713H60.6886C62.124 96.7713 63.7986 96.7028 65.7018 96.5707C67.6335 96.4368 69.5061 96.2353 71.3187 95.9652L71.329 95.9637L71.3392 95.9621C79.1964 94.7359 85.9473 91.9846 91.4774 87.6197L91.4814 87.6165C97.0022 83.2439 101.154 77.7801 103.912 71.2652C106.713 64.7343 108.093 57.5944 108.093 49.8856C108.093 42.1258 106.75 34.9889 104.013 28.5186C101.257 21.9371 97.1021 16.4625 91.5658 12.1455C86.0431 7.78883 79.275 5.04354 71.3804 3.81559C69.5261 3.47265 67.6154 3.26755 65.6507 3.19698C63.7686 3.06729 62.1111 3 60.6886 3H6H3V6V145.197ZM64.0042 74.2513L63.9942 74.2521C62.5189 74.3758 61.2271 74.435 60.1119 74.435H26.1082V25.3363H60.1119C61.2271 25.3363 62.5189 25.3955 63.9942 25.5191L64.0591 25.5246L64.1242 25.5272C65.5202 25.5834 66.7985 25.7785 67.9686 26.0994L68.0445 26.1202L68.1213 26.137C72.0701 27.0004 75.1121 28.6276 77.3995 30.928L77.4116 30.9403L77.4239 30.9524C79.9112 33.397 81.7099 36.2521 82.8403 39.5489L82.8429 39.5565L82.8455 39.5641C84.0169 42.9217 84.6004 46.3576 84.6004 49.8856C84.6004 53.411 84.0178 56.8818 82.8432 60.3106C81.7158 63.5389 79.9189 66.3664 77.4245 68.8183C75.1277 71.0746 72.0638 72.7136 68.0865 73.6421C66.8342 73.9279 65.4749 74.133 64.0042 74.2513ZM131.299 142.344L131.31 142.352L131.322 142.359C139.89 148.197 150.681 151 163.479 151C176.836 151 187.724 148.042 195.79 141.764L195.796 141.759L195.802 141.754C203.952 135.34 208 126.514 208 115.617C208 109.798 206.794 104.684 204.202 100.434C201.584 96.0759 197.302 92.5248 191.675 89.6576C186.127 86.7345 178.67 84.1222 169.405 81.7766C161.308 79.7245 155.221 77.9208 151.084 76.3688C147.005 74.8142 144.656 73.3257 143.54 72.0822C142.507 70.8599 141.97 69.4099 141.97 67.5752C141.97 64.2038 143.428 61.5366 146.816 59.3844C150.383 57.1583 155.21 56.0243 161.538 56.2667L161.555 56.2673L161.571 56.2678C168.256 56.4495 173.424 58.045 177.299 60.8286L177.307 60.8344L177.315 60.8403C181.185 63.5807 183.44 67.2635 184.155 72.076L184.611 75.1426L187.661 74.5865L205.154 71.3965L207.917 70.8926L207.596 68.1021C206.827 61.4226 204.33 55.5235 200.103 50.4868C195.968 45.4182 190.542 41.5645 183.922 38.8879C177.293 36.2072 169.853 34.8993 161.653 34.8993C153.395 34.8993 146.004 36.2052 139.545 38.9005L139.534 38.9049C133.138 41.6025 128.027 45.4995 124.332 50.6413C120.6 55.7705 118.766 61.7469 118.766 68.4452C118.766 73.8679 119.996 78.68 122.608 82.7334C125.238 86.8141 129.485 90.1846 135.027 92.9716C140.541 95.7442 147.97 98.3523 157.226 100.826L157.228 100.827C165.66 103.075 171.844 104.975 175.853 106.526L175.86 106.528L175.867 106.531C179.988 108.101 182.058 109.584 182.862 110.701L182.877 110.721L182.892 110.741C183.745 111.885 184.315 113.578 184.315 116.101C184.315 120.255 182.736 123.378 179.484 125.766C176.138 128.223 171.27 129.63 164.536 129.63C157.485 129.63 151.811 128.089 147.343 125.192C142.887 122.238 140.122 118.351 138.902 113.444L138.237 110.769L135.516 111.205L118.023 114.009L114.994 114.494L115.547 117.511C117.478 128.053 122.74 136.395 131.299 142.344Z" stroke="url(#paint0_linear_606_815)" stroke-width="6"/>
<defs>
<linearGradient id="paint0_linear_606_815" x1="23.7422" y1="-33.1491" x2="229.652" y2="164.75" gradientUnits="userSpaceOnUse">
<stop stop-color="#FB6F92"/>
<stop offset="1" stop-color="#FFDEE6"/>
</linearGradient>
</defs>
</svg>
